<?xml version="1.0" encoding="iso-8859-1"?>
<!-- Generator: Adobe Illustrator 16.0.0, SVG Export Plug-In . SVG Version: 6.00 Build 0)  -->
<!DOCTYPE svg PUBLIC "-//W3C//DTD SVG 1.1//EN" "http://www.w3.org/Graphics/SVG/1.1/DTD/svg11.dtd">
<svg version="1.1" id="Capa_1" xmlns="http://www.w3.org/2000/svg" xmlns:xlink="http://www.w3.org/1999/xlink" x="0px" y="0px"
	 width="44.852px" height="44.852px" viewBox="0 0 44.852 44.852" style="enable-background:new 0 0 44.852 44.852;"
	 xml:space="preserve">
<g>
	<g>
		<path d="M44.619,19.276c-0.305-0.996-1.239-1.665-2.326-1.665c-0.258,0-0.516,0.039-0.766,0.115l-22.076,7.502l-0.799,3.662
			l24.286-6.605c0.627-0.191,1.156-0.617,1.479-1.19C44.732,20.528,44.806,19.882,44.619,19.276z"/>
		<path d="M9.794,32.335c-0.232-0.118-0.473-0.228-0.723-0.319c-0.038-0.015-0.074-0.033-0.112-0.047
			c-0.271-0.097-0.552-0.156-0.831-0.216l5.104-1.389l0.491-3.188L3.205,30.749c-0.808,0.248-1.444,0.455-1.82,0.75
			c-0.282,0.222-0.436,0.485-0.258,1.067c0.189,0.621,0.494,0.746,0.925,0.746c0.096,0,0.2-0.012,0.307-0.024
			c-0.18,0.158-0.346,0.33-0.506,0.508c-0.129,0.144-0.266,0.281-0.382,0.435c-0.403,0.535-0.731,1.137-0.962,1.791
			c-1.215,3.449,0.604,7.24,4.052,8.453c0.711,0.25,1.449,0.377,2.197,0.377c1.712,0,3.311-0.67,4.512-1.787
			c0.042-0.389,0.113-0.781,0.184-1.154l1.07-6.945C11.884,33.83,10.942,32.926,9.794,32.335z M11.123,39.756
			c-0.649,1.852-2.404,3.096-4.365,3.096c-0.521,0-1.037-0.09-1.533-0.265c-2.408-0.846-3.678-3.493-2.831-5.899
			c0.649-1.853,2.404-3.094,4.364-3.094c0.521,0,1.038,0.088,1.535,0.264c1.166,0.41,2.104,1.248,2.638,2.363
			C11.465,37.333,11.534,38.59,11.123,39.756z"/>
		<circle cx="6.758" cy="38.223" r="2.586"/>
		<path d="M4.561,27.521c0.711,0.25,1.449,0.377,2.197,0.377c2.809,0,5.32-1.781,6.252-4.432c0.588-1.669,0.489-3.469-0.275-5.065
			c-0.766-1.596-2.107-2.8-3.777-3.386c-0.711-0.25-1.451-0.377-2.198-0.377c-2.808,0-5.319,1.781-6.253,4.431
			C-0.705,22.518,1.113,26.309,4.561,27.521z M2.394,19.733c0.65-1.851,2.404-3.094,4.365-3.094c0.521,0,1.037,0.089,1.534,0.264
			c1.166,0.41,2.104,1.25,2.638,2.364s0.603,2.37,0.192,3.536c-0.649,1.85-2.404,3.094-4.365,3.094
			c-0.521,0-1.037-0.088-1.533-0.264C2.817,24.787,1.547,22.139,2.394,19.733z"/>
		<circle cx="6.758" cy="21.268" r="2.586"/>
		<path d="M4.561,13.184c0.711,0.25,1.45,0.376,2.197,0.376c2.81,0,5.321-1.78,6.252-4.43c0.588-1.67,0.489-3.469-0.275-5.065
			c-0.767-1.596-2.106-2.798-3.776-3.385C8.247,0.43,7.507,0.303,6.759,0.303c-2.808,0-5.319,1.78-6.252,4.431
			C-0.706,8.181,1.113,11.972,4.561,13.184z M2.394,5.397c0.649-1.851,2.404-3.094,4.364-3.094c0.521,0,1.038,0.089,1.535,0.264
			c1.166,0.41,2.104,1.25,2.638,2.364c0.534,1.114,0.604,2.37,0.192,3.536c-0.649,1.851-2.404,3.094-4.365,3.094
			c-0.521,0-1.037-0.088-1.533-0.263C2.816,10.451,1.547,7.804,2.394,5.397z"/>
		<circle cx="6.758" cy="6.932" r="2.586"/>
		<path d="M22.922,1.06c-0.354-0.543-0.896-0.906-1.52-1.021C21.262,0.013,21.122,0,20.984,0c-1.159,0-2.162,0.869-2.386,2.065
			l-3.641,23.634l-0.086,0.559l-0.086,0.557l-0.503,3.267L14.2,30.622l-0.083,0.541l-0.879,5.707l-0.705,4.59l-0.096,0.621
			c-0.357,1.922-0.315,2.504,0.65,2.687c0.935,0.168,1.212-0.334,1.57-2.258l2.666-12.22l0.12-0.551l0.12-0.552l0.781-3.582
			l0.125-0.571l0.124-0.569l4.699-21.542C23.414,2.276,23.283,1.609,22.922,1.06z"/>
	</g>
</g>
<g>
</g>
<g>
</g>
<g>
</g>
<g>
</g>
<g>
</g>
<g>
</g>
<g>
</g>
<g>
</g>
<g>
</g>
<g>
</g>
<g>
</g>
<g>
</g>
<g>
</g>
<g>
</g>
<g>
</g>
</svg>
